<svg xmlns="http://www.w3.org/2000/svg" xmlns:xlink="http://www.w3.org/1999/xlink" viewBox="0 0 70.31 80"><defs><style>.cls-1{fill:none;}.cls-2{fill:#e63f50;}.cls-3{fill:#ea6b69;}.cls-4{fill:#e8555d;}.cls-5{clip-path:url(#clip-path);}.cls-6{fill:#ef8e88;}</style><clipPath id="clip-path" transform="translate(0 0)"><rect class="cls-1" width="70.31" height="80"/></clipPath></defs><g id="Layer_2" data-name="Layer 2"><g id="Icons"><path class="cls-2" d="M16.41,14.22A11.72,11.72,0,1,0,28.12,25.94,11.72,11.72,0,0,0,16.41,14.22Z" transform="translate(0 0)"/><path class="cls-3" d="M16.41,37.66a11.72,11.72,0,0,1,0-23.44V37.66Z" transform="translate(0 0)"/><path class="cls-2" d="M.33,63.41A7.47,7.47,0,0,1,3.61,56.8,13.14,13.14,0,0,0,9.37,45.91V37.66H23.44v8.25A13.14,13.14,0,0,0,29.2,56.8a7.43,7.43,0,0,1,3.28,6.61,7.33,7.33,0,0,1-4.07,6.18L23.53,72H9.28L4.41,69.59A7.36,7.36,0,0,1,.33,63.41Z" transform="translate(0 0)"/><path class="cls-3" d="M.33,63.41A7.47,7.47,0,0,1,3.61,56.8,13.14,13.14,0,0,0,9.37,45.91V37.66h7V72H9.28L4.41,69.59A7.36,7.36,0,0,1,.33,63.41Z" transform="translate(0 0)"/><path class="cls-4" d="M46.87,7a2.33,2.33,0,0,1,2.35-2.34h2.34V2.34a2.35,2.35,0,0,1,4.69,0V4.69h2.34a2.35,2.35,0,1,1,0,4.69H56.25v6.84a2.35,2.35,0,0,1-4.69,0V9.38H49.22A2.33,2.33,0,0,1,46.87,7Z" transform="translate(0 0)"/><path class="cls-3" d="M53.91,18.56a2.35,2.35,0,0,1-2.35-2.34V9.38H49.22a2.35,2.35,0,1,1,0-4.69h2.34V2.34A2.32,2.32,0,0,1,53.91,0V18.56Z" transform="translate(0 0)"/><path class="cls-2" d="M42.37,19.55a2.35,2.35,0,0,1,1-3,21.63,21.63,0,0,1,21,0,2.35,2.35,0,0,1,1,3L62.25,27H45.56l-3.19-7.4Z" transform="translate(0 0)"/><g class="cls-5"><path class="cls-4" d="M42.37,19.55a2.35,2.35,0,0,1,1-3,21.49,21.49,0,0,1,10.5-2.72V27H45.56l-3.19-7.4Z" transform="translate(0 0)"/><path class="cls-2" d="M41.77,68.84a14,14,0,0,1,0-19.87,18,18,0,0,0,5.1-12.59V28.13a2.33,2.33,0,0,1,2.35-2.35h9.37a2.32,2.32,0,0,1,2.35,2.35v8.25A18,18,0,0,0,66.05,49a14.06,14.06,0,0,1,0,19.87l-6.47,6.47H48.23l-6.46-6.47Z" transform="translate(0 0)"/></g><path class="cls-4" d="M41.77,68.84a14,14,0,0,1,0-19.87,18,18,0,0,0,5.1-12.59V28.13a2.33,2.33,0,0,1,2.35-2.35h4.69V75.31H48.23l-6.46-6.47Z" transform="translate(0 0)"/><path class="cls-4" d="M37.5,75.31a4.7,4.7,0,0,1,4.69-4.69H65.62a4.7,4.7,0,0,1,4.69,4.69v2.35A2.32,2.32,0,0,1,68,80H39.84a2.32,2.32,0,0,1-2.34-2.34V75.31Z" transform="translate(0 0)"/><path class="cls-3" d="M37.5,75.31a4.7,4.7,0,0,1,4.69-4.69H53.91V80H39.84a2.32,2.32,0,0,1-2.34-2.34V75.31Z" transform="translate(0 0)"/><path class="cls-4" d="M42.19,28.13a4.7,4.7,0,0,1,4.68-4.69H60.94a4.69,4.69,0,0,1,0,9.37H46.87a4.7,4.7,0,0,1-4.68-4.68Z" transform="translate(0 0)"/><g class="cls-5"><path class="cls-3" d="M46.87,32.81a4.69,4.69,0,0,1,0-9.37h7v9.37Z" transform="translate(0 0)"/><path class="cls-4" d="M0,75.31a4.7,4.7,0,0,1,4.69-4.69H28.12a4.7,4.7,0,0,1,4.69,4.69v2.35A2.32,2.32,0,0,1,30.47,80H2.34A2.32,2.32,0,0,1,0,77.66V75.31Z" transform="translate(0 0)"/><path class="cls-6" d="M0,75.31a4.7,4.7,0,0,1,4.69-4.69H16.41V80H2.34A2.32,2.32,0,0,1,0,77.66V75.31Z" transform="translate(0 0)"/></g><path class="cls-4" d="M4.69,37.66A4.7,4.7,0,0,1,9.37,33H23.44a4.69,4.69,0,0,1,0,9.37H9.37a4.7,4.7,0,0,1-4.68-4.68Z" transform="translate(0 0)"/><path class="cls-6" d="M9.37,42.34a4.69,4.69,0,0,1,0-9.37h7v9.37Z" transform="translate(0 0)"/></g></g></svg>