<svg xmlns="http://www.w3.org/2000/svg" xmlns:xlink="http://www.w3.org/1999/xlink" viewBox="0 0 60.94 80"><defs><style>.cls-1{fill:none;}.cls-2{clip-path:url(#clip-path);}.cls-3{fill:#da3e76;}.cls-4{fill:#ca1c68;}.cls-5{fill:#f4adb9;}.cls-6{fill:#ef869f;}.cls-7{fill:#ea5f84;}</style><clipPath id="clip-path"><rect class="cls-1" width="60.94" height="80"/></clipPath></defs><g id="Layer_2" data-name="Layer 2"><g id="Icons"><g class="cls-2"><path class="cls-3" d="M60.94,16.41V77.66A2.32,2.32,0,0,1,58.59,80H2.34A2.32,2.32,0,0,1,0,77.66V16.41a2.32,2.32,0,0,1,2.34-2.35H58.59a2.32,2.32,0,0,1,2.35,2.35Z"/><path class="cls-4" d="M60.94,16.41V77.66A2.32,2.32,0,0,1,58.59,80H30.47V14.06H58.59a2.32,2.32,0,0,1,2.35,2.35Z"/></g><path class="cls-5" d="M56.25,18.75V75.31H4.69V18.75H16.41l4.68-4.69H39.84l4.69,4.69Z"/><path class="cls-6" d="M56.25,18.75V75.31H30.47V14.06h9.37l4.69,4.69Z"/><path class="cls-7" d="M44.53,11.72v7H16.41v-7a2.32,2.32,0,0,1,2.34-2.34h2.34a9.38,9.38,0,1,1,18.75,0h2.35a2.32,2.32,0,0,1,2.34,2.34Z"/><path class="cls-7" d="M44.53,11.72v7H30.47V0a9.4,9.4,0,0,1,9.37,9.38h2.35a2.32,2.32,0,0,1,2.34,2.34Z"/><path class="cls-3" d="M24.41,35.31l3-3A2.34,2.34,0,0,0,24.12,29l-3,3-3-3a2.34,2.34,0,0,0-3.31,3.31l3,3-3,3a2.34,2.34,0,0,0,3.31,3.32l3-3,3,3a2.35,2.35,0,0,0,3.32-3.32Z"/><path class="cls-5" d="M32.81,9.38A2.35,2.35,0,1,1,30.47,7a2.32,2.32,0,0,1,2.34,2.35Z"/><path class="cls-3" d="M46.17,37a2.26,2.26,0,0,1-3.28,0l-.7-.65v8.39a7,7,0,0,1-7,7H25.78a2.32,2.32,0,0,0-2.34,2.34v4.69a2.35,2.35,0,0,1-4.69,0V54.06a7,7,0,0,1,7-7h9.38a2.32,2.32,0,0,0,2.34-2.34V36.3l-.7.65a2.32,2.32,0,1,1-3.28-3.28L38.2,29a2.28,2.28,0,0,1,3.28,0l4.69,4.69a2.26,2.26,0,0,1,0,3.28Z"/><path class="cls-4" d="M46.17,37a2.26,2.26,0,0,1-3.28,0l-.7-.65v8.39a7,7,0,0,1-7,7H30.47V47h4.69a2.32,2.32,0,0,0,2.34-2.34V36.3l-.7.65a2.32,2.32,0,1,1-3.28-3.28L38.2,29a2.28,2.28,0,0,1,3.28,0l4.69,4.69a2.26,2.26,0,0,1,0,3.28Z"/><path class="cls-7" d="M21.09,56.41a7,7,0,1,0,7,7,7,7,0,0,0-7-7Zm0,9.37a2.35,2.35,0,1,1,2.35-2.34,2.34,2.34,0,0,1-2.35,2.34Z"/><path class="cls-3" d="M39.84,56.41a7,7,0,1,0,7,7,7,7,0,0,0-7-7Zm0,9.37a2.35,2.35,0,1,1,2.35-2.34,2.34,2.34,0,0,1-2.35,2.34Z"/></g></g></svg>