<svg xmlns="http://www.w3.org/2000/svg" xmlns:xlink="http://www.w3.org/1999/xlink" viewBox="0 0 79.92 79.92"><defs><style>.cls-1{fill:none;}.cls-2{fill:#97d0ed;}.cls-3{fill:#6cbee5;}.cls-4{fill:#4485b6;}.cls-5{fill:#c2e2f5;}.cls-6{clip-path:url(#clip-path);}.cls-7{fill:#1c4c87;}</style><clipPath id="clip-path" transform="translate(0 -0.06)"><rect class="cls-1" width="79.98" height="80.17"/></clipPath></defs><g id="Layer_2" data-name="Layer 2"><g id="Icons"><path class="cls-2" d="M23.41,44.71v11.7H0V44.71a11.71,11.71,0,1,1,23.41,0Z" transform="translate(0 -0.06)"/><path class="cls-3" d="M23.41,44.71v11.7H11.71V33a11.66,11.66,0,0,1,11.7,11.71Z" transform="translate(0 -0.06)"/><path class="cls-3" d="M11.71,23.63a7,7,0,1,0,7,7,7,7,0,0,0-7-7Z" transform="translate(0 -0.06)"/><path class="cls-4" d="M18.73,30.66a7,7,0,0,1-7,7v-14a7,7,0,0,1,7,7Z" transform="translate(0 -0.06)"/><path class="cls-2" d="M47,40V51.73H14.05V40A16.41,16.41,0,0,1,30.44,23.63,16.74,16.74,0,0,1,47,40Z" transform="translate(0 -0.06)"/><path class="cls-3" d="M47,40V51.73H30.44V23.63A16.74,16.74,0,0,1,47,40Z" transform="translate(0 -0.06)"/><path class="cls-3" d="M30.44,9.58A9.37,9.37,0,1,0,39.8,19a9.4,9.4,0,0,0-9.36-9.37Z" transform="translate(0 -0.06)"/><path class="cls-4" d="M39.8,19a9.39,9.39,0,0,1-9.36,9.37V9.58A9.39,9.39,0,0,1,39.8,19Z" transform="translate(0 -0.06)"/><path class="cls-2" d="M79.92,40V51.73H37.46V40A21.32,21.32,0,0,1,58.85,19,21.1,21.1,0,0,1,79.92,40Z" transform="translate(0 -0.06)"/><path class="cls-3" d="M79.92,40V51.73H58.85V19A21.1,21.1,0,0,1,79.92,40Z" transform="translate(0 -0.06)"/><path class="cls-3" d="M58.85.06A12,12,0,0,0,47,11.93a11.85,11.85,0,0,0,11.87,11.7,11.7,11.7,0,0,0,11.7-11.7A11.84,11.84,0,0,0,58.85.06Z" transform="translate(0 -0.06)"/><path class="cls-4" d="M70.55,11.93a11.7,11.7,0,0,1-11.7,11.7V.06a11.84,11.84,0,0,1,11.7,11.87Z" transform="translate(0 -0.06)"/><path class="cls-2" d="M18.73,80H39.8l4.69-3.21V49.39L39.8,47.05H18.73l-4.68,2.49V76.91Z" transform="translate(0 -0.06)"/><path class="cls-5" d="M18.73,80H2.34A2.34,2.34,0,0,1,0,77.64V51.73l18.73-4.68Z" transform="translate(0 -0.06)"/><path class="cls-5" d="M61.19,80H39.8V47.05H61.19l4.68,2.64V76Z" transform="translate(0 -0.06)"/><g class="cls-6"><path class="cls-2" d="M77.58,80H61.19V42.37l18.73-4.69v40A2.34,2.34,0,0,1,77.58,80Z" transform="translate(0 -0.06)"/><path class="cls-4" d="M79.59,38.38l-5.43,9.56a2.35,2.35,0,0,1-2.11,1.17,2.26,2.26,0,0,1-2-1.31L69.15,46,41.91,56a4.67,4.67,0,0,1-4.45-.42l-9.69-7.87L0,61.66V51.17l26-13a4.65,4.65,0,0,1,4.68.28l9.13,8,25.14-8.81-.38-.7a2.5,2.5,0,0,1,.19-2.43,2.37,2.37,0,0,1,2.2-.94l10.91,1.36a2.36,2.36,0,0,1,1.83,1.26,2.32,2.32,0,0,1-.1,2.2Z" transform="translate(0 -0.06)"/><path class="cls-7" d="M79.59,38.38l-5.43,9.56a2.35,2.35,0,0,1-2.11,1.17,2.26,2.26,0,0,1-2-1.31L69.15,46,41.91,56a4.62,4.62,0,0,1-2.11.37v-10l25.14-8.81-.38-.7a2.5,2.5,0,0,1,.19-2.43,2.37,2.37,0,0,1,2.2-.94l10.91,1.36a2.36,2.36,0,0,1,1.83,1.26,2.32,2.32,0,0,1-.1,2.2Z" transform="translate(0 -0.06)"/></g></g></g></svg>