<svg xmlns="http://www.w3.org/2000/svg" xmlns:xlink="http://www.w3.org/1999/xlink" viewBox="0 0 79.92 74.93"><defs><style>.cls-1{fill:none;}.cls-2{fill:#159392;}.cls-3{fill:#0db4ab;}.cls-4{fill:#1d7279;}.cls-5{clip-path:url(#clip-path);}</style><clipPath id="clip-path" transform="translate(0 -0.23)"><rect class="cls-1" width="80" height="75.32"/></clipPath></defs><g id="Layer_2" data-name="Layer 2"><g id="Icons"><path class="cls-2" d="M61.19,23.65v7a4.69,4.69,0,1,1-9.37,0V26H28.1v4.68a4.69,4.69,0,1,1-9.37,0v-7a9.4,9.4,0,0,1,9.37-9.37H51.82a9.4,9.4,0,0,1,9.37,9.37Z" transform="translate(0 -0.23)"/><path class="cls-3" d="M61.19,23.65v7a4.69,4.69,0,1,1-9.37,0V26H40V14.28H51.82a9.4,9.4,0,0,1,9.37,9.37Z" transform="translate(0 -0.23)"/><path class="cls-4" d="M49.48,9.6a9.52,9.52,0,0,1-19,0,9.52,9.52,0,0,1,19,0Z" transform="translate(0 -0.23)"/><g class="cls-5"><path class="cls-2" d="M49.48,9.6A9.53,9.53,0,0,1,40,19V.23A9.53,9.53,0,0,1,49.48,9.6Z" transform="translate(0 -0.23)"/><path class="cls-2" d="M32.06,73.65l6.24-3.51A4.71,4.71,0,0,0,40,63.74,4.89,4.89,0,0,0,33.46,62l-4.05,2.34L17.7,44.09l4.05-2.34a4.68,4.68,0,1,0-4.68-8.11L11,37.15A9.39,9.39,0,0,0,7.56,49.94L19.27,70.22a9.39,9.39,0,0,0,12.79,3.43Z" transform="translate(0 -0.23)"/><path class="cls-3" d="M32.06,73.65l6.24-3.51A4.71,4.71,0,0,0,40,63.74,4.89,4.89,0,0,0,33.46,62l-4.05,2.34L23.55,54.23,13.41,60.08l5.86,10.14a9.39,9.39,0,0,0,12.79,3.43Z" transform="translate(0 -0.23)"/><path class="cls-4" d="M14,70.54A9.37,9.37,0,1,0,1.25,67.11,9.41,9.41,0,0,0,14,70.54Z" transform="translate(0 -0.23)"/><path class="cls-2" d="M14,70.54a9.41,9.41,0,0,0,3.43-12.8L1.25,67.11A9.39,9.39,0,0,0,14,70.54Z" transform="translate(0 -0.23)"/><path class="cls-2" d="M47.86,73.91,41.62,70.4A4.7,4.7,0,0,1,39.91,64a4.87,4.87,0,0,1,6.55-1.71l4.06,2.34,11.7-20.28-4-2.34a4.68,4.68,0,1,1,4.68-8.11l6.08,3.51a9.4,9.4,0,0,1,3.43,12.8L60.65,70.49a9.38,9.38,0,0,1-12.79,3.42Z" transform="translate(0 -0.23)"/><path class="cls-3" d="M47.86,73.91,41.62,70.4A4.7,4.7,0,0,1,39.91,64a4.87,4.87,0,0,1,6.55-1.71l4.06,2.34,5.85-10.14,10.14,5.86L60.65,70.49a9.38,9.38,0,0,1-12.79,3.42Z" transform="translate(0 -0.23)"/><path class="cls-4" d="M65.88,70.8a9.37,9.37,0,1,1,12.79-3.43A9.41,9.41,0,0,1,65.88,70.8Z" transform="translate(0 -0.23)"/></g><path class="cls-2" d="M65.88,70.8A9.41,9.41,0,0,1,62.45,58l16.22,9.37A9.39,9.39,0,0,1,65.88,70.8Z" transform="translate(0 -0.23)"/></g></g></svg>