<svg xmlns="http://www.w3.org/2000/svg" xmlns:xlink="http://www.w3.org/1999/xlink" viewBox="0 0 80 80"><defs><style>.cls-1{fill:none;}.cls-2{clip-path:url(#clip-path);}.cls-3{fill:#4c3480;}.cls-4{fill:#b6abcf;}</style><clipPath id="clip-path" transform="translate(0)"><rect class="cls-1" width="79.84" height="80"/></clipPath></defs><g id="Layer_2" data-name="Layer 2"><g id="Icons"><g class="cls-2"><path class="cls-3" d="M40.1,80H58.85a2.26,2.26,0,0,0,2.24-2.34V65.78h7.13a2.26,2.26,0,0,0,2.25-2.34V51.72h7.19a2.34,2.34,0,0,0,2.17-3.21L73.59,33.08V25.94A25.93,25.93,0,0,0,47.82,0H40L16.56,14.22V61.09L40,80h.1Z" transform="translate(0)"/><path class="cls-4" d="M42.34,42.34a9.06,9.06,0,0,0-2.34.34V34.42a9.37,9.37,0,1,1,0-12.28V0H32.28A25.89,25.89,0,0,0,6.56,25.94v7.14L.17,48.51a2.34,2.34,0,0,0,2.17,3.21H9.53V63.44a2.35,2.35,0,0,0,2.35,2.34h7V77.66A2.34,2.34,0,0,0,21.25,80H40V60.76a9.06,9.06,0,0,0,2.34.33,9.38,9.38,0,1,0,0-18.75Z" transform="translate(0)"/></g></g></g></svg>