<svg xmlns="http://www.w3.org/2000/svg" viewBox="0 0 80 73.44"><defs><style>.cls-1{fill:#ef8e88;}.cls-2{fill:#ea6b69;}.cls-3{fill:#e8555d;}.cls-4{fill:#e63f50;}.cls-5{fill:#f4b1a7;}</style></defs><g id="Layer_2" data-name="Layer 2"><g id="Icons"><path class="cls-1" d="M47,57v12.5a2.35,2.35,0,0,1-2.34,2.35H35.31A2.35,2.35,0,0,1,33,69.53V57a2.34,2.34,0,0,1,2.34-2.34h9.38A2.34,2.34,0,0,1,47,57Z"/><path class="cls-2" d="M47,57v12.5a2.35,2.35,0,0,1-2.34,2.35H39.92V54.69h4.77A2.34,2.34,0,0,1,47,57Z"/><path class="cls-3" d="M56.66,71.09a2.35,2.35,0,0,1-2.34,2.35H25.68a2.35,2.35,0,0,1,0-4.69H54.32a2.34,2.34,0,0,1,2.34,2.34Z"/><path class="cls-4" d="M56.66,71.09a2.35,2.35,0,0,1-2.34,2.35H39.92V68.75h14.4a2.34,2.34,0,0,1,2.34,2.34Z"/><rect class="cls-5" x="2.24" y="2.52" width="75.43" height="56.25"/><rect class="cls-1" x="39.92" y="2.52" width="37.75" height="56.25"/><path class="cls-2" d="M77.66,0H2.34A2.34,2.34,0,0,0,0,2.34V58.59a2.35,2.35,0,0,0,2.34,2.35H77.66A2.35,2.35,0,0,0,80,58.59V2.34A2.34,2.34,0,0,0,77.66,0ZM75.31,56.25H4.69V4.69H75.31Z"/><path class="cls-3" d="M64.31,33.69h0a24.14,24.14,0,0,1-7.12,17.18,2.33,2.33,0,0,1-3.31,0l-3.67-3.66a2.34,2.34,0,1,1,3.31-3.32l1.91,1.91a19.31,19.31,0,0,0,4-9.77H56a2.35,2.35,0,0,1,0-4.69h3.44a19.31,19.31,0,0,0-4-9.77l-1.91,1.91a2.34,2.34,0,0,1-3.31-3.32l1.91-1.91a19.39,19.39,0,0,0-9.78-4.05v3.44A2.35,2.35,0,0,1,40,20h-.08a2.33,2.33,0,0,1-2.26-2.34V14.2a19.39,19.39,0,0,0-9.78,4.05l1.91,1.91a2.34,2.34,0,0,1-3.31,3.32l-1.91-1.91a19.31,19.31,0,0,0-4.05,9.77H24A2.35,2.35,0,0,1,24,36H20.52a19.31,19.31,0,0,0,4.05,9.77l1.91-1.91a2.34,2.34,0,1,1,3.31,3.32l-3.67,3.66a2.33,2.33,0,0,1-3.31,0,24.14,24.14,0,0,1-7.12-17.18h0A24.29,24.29,0,0,1,39.92,9.38H40a24.29,24.29,0,0,1,24.31,24.3Z"/><path class="cls-3" d="M41.66,32a2.34,2.34,0,0,1,0-3.32l2.78-2.78a2.34,2.34,0,0,1,3.31,3.32L45,32a2.35,2.35,0,0,1-3.31,0Z"/><path class="cls-3" d="M46.07,33.69A6.08,6.08,0,0,1,40,39.76h-.08a6.07,6.07,0,0,1,0-12.14H40a6.07,6.07,0,0,1,6.07,6.07Z"/><path class="cls-3" d="M80,2.34V58.59a2.35,2.35,0,0,1-2.34,2.35H39.92V56.25H75.31V4.69H39.92V0H77.66A2.34,2.34,0,0,1,80,2.34Z"/><path class="cls-4" d="M40,39.76h-.08V27.62H40a6.07,6.07,0,1,1,0,12.14Z"/><path class="cls-4" d="M64.31,33.69h0a24.14,24.14,0,0,1-7.12,17.18,2.33,2.33,0,0,1-3.31,0l-3.67-3.66a2.34,2.34,0,1,1,3.31-3.32l1.91,1.91a19.31,19.31,0,0,0,4-9.77H56a2.35,2.35,0,0,1,0-4.69h3.44a19.31,19.31,0,0,0-4-9.77l-1.91,1.91a2.34,2.34,0,0,1-3.31-3.32l1.91-1.91a19.39,19.39,0,0,0-9.78-4.05v3.44A2.35,2.35,0,0,1,40,20h-.08V9.38H40a24.29,24.29,0,0,1,24.31,24.3Z"/></g></g></svg>